<?xml version="1.0" encoding="utf-8"?>
<!-- Generator: Adobe Illustrator 22.1.0, SVG Export Plug-In . SVG Version: 6.00 Build 0)  -->
<svg version="1.1" id="Layer_1" xmlns="http://www.w3.org/2000/svg" xmlns:xlink="http://www.w3.org/1999/xlink" x="0px" y="0px"
	 viewBox="0 0 200 200" style="enable-background:new 0 0 200 200;" xml:space="preserve">
<g>
	<path d="M66,11.1h113.5c2.5,0,4.6-2,4.6-4.6S182,2,179.5,2H66c-2.5,0-4.6,2-4.6,4.6S63.5,11.1,66,11.1z"/>
	<path d="M179.5,28.7H66c-2.5,0-4.6,2-4.6,4.6c0,2.5,2,4.6,4.6,4.6h113.5c2.5,0,4.6-2,4.6-4.6C184,30.7,182,28.7,179.5,28.7z"/>
	<path d="M20.5,64.5h111c2.5,0,4.6-2,4.6-4.6c0-2.5-2-4.6-4.6-4.6h-111c-2.5,0-4.6,2-4.6,4.6C16,62.4,18,64.5,20.5,64.5z"/>
	<path d="M20.5,91.2h111c2.5,0,4.6-2,4.6-4.6s-2-4.6-4.6-4.6h-111c-2.5,0-4.6,2-4.6,4.6S18,91.2,20.5,91.2z"/>
	<path d="M179.5,108.8H68.7c-2.5,0-4.6,2-4.6,4.6c0,2.5,2,4.6,4.6,4.6h110.8c2.5,0,4.6-2,4.6-4.6C184,110.8,182,108.8,179.5,108.8z"
		/>
	<path d="M179.5,135.5H68.7c-2.5,0-4.6,2-4.6,4.6c0,2.5,2,4.6,4.6,4.6h110.8c2.5,0,4.6-2,4.6-4.6C184,137.6,182,135.5,179.5,135.5z"
		/>
	<path d="M131.5,162.2h-111c-2.5,0-4.6,2-4.6,4.6c0,2.5,2,4.6,4.6,4.6h111c2.5,0,4.6-2,4.6-4.6C136.1,164.3,134,162.2,131.5,162.2z"
		/>
	<path d="M131.5,188.9h-111c-2.5,0-4.6,2-4.6,4.6c0,2.5,2,4.6,4.6,4.6h111c2.5,0,4.6-2,4.6-4.6C136.1,191,134,188.9,131.5,188.9z"/>
</g>
</svg>
